<svg width="90" height="23" viewBox="0 0 90 23" fill="none" xmlns="http://www.w3.org/2000/svg">
<g clip-path="url(#clip0_4_305)">
<path d="M15.6094 0.5H6.39066C2.86683 0.5 0 3.36683 0 6.89066V16.1093C0 19.6332 2.86683 22.5 6.39066 22.5H15.6093C19.1332 22.5 22 19.6332 22 16.1094V6.89066C22 3.36683 19.1332 0.5 15.6094 0.5ZM20.2812 16.1093C20.2812 18.6854 18.1854 20.7812 15.6094 20.7812H6.39066C3.81455 20.7812 1.71875 18.6854 1.71875 16.1094V6.89066C1.71875 4.31455 3.81455 2.21875 6.39066 2.21875H15.6093C18.1854 2.21875 20.2812 4.31455 20.2812 6.89066V16.1093Z" fill="black"/>
<path d="M11 5.57031C7.73034 5.57031 5.07031 8.23034 5.07031 11.5C5.07031 14.7697 7.73034 17.4297 11 17.4297C14.2697 17.4297 16.9297 14.7697 16.9297 11.5C16.9297 8.23034 14.2697 5.57031 11 5.57031ZM11 15.7109C8.6781 15.7109 6.78906 13.8219 6.78906 11.5C6.78906 9.1781 8.6781 7.28906 11 7.28906C13.3219 7.28906 15.2109 9.1781 15.2109 11.5C15.2109 13.8219 13.3219 15.7109 11 15.7109Z" fill="black"/>
<path d="M17.0156 6.34375C17.4902 6.34375 17.875 5.95899 17.875 5.48438C17.875 5.00976 17.4902 4.625 17.0156 4.625C16.541 4.625 16.1562 5.00976 16.1562 5.48438C16.1562 5.95899 16.541 6.34375 17.0156 6.34375Z" fill="black"/>
</g>
<path d="M52.5391 1H36.4609C35.1039 1 34 2.1039 34 3.46094V19.5391C34 20.8961 35.1039 22 36.4609 22H52.5391C53.8961 22 55 20.8961 55 19.5391V3.46094C55 2.1039 53.8961 1 52.5391 1ZM53.3594 19.5391C53.3594 19.9914 52.9914 20.3594 52.5391 20.3594H47.6992V14.3711H50.3253L50.6314 11.8281H47.6992V9.08008C47.6992 8.37865 48.2283 7.84961 48.9297 7.84961H50.7754V5.4707C50.2896 5.40213 49.3525 5.30664 48.9297 5.30664C47.973 5.30664 47.0141 5.71023 46.2989 6.41374C45.5621 7.13856 45.1562 8.08801 45.1562 9.08729V11.8281H42.4902V14.3711H45.1562V20.3594H36.4609C36.0086 20.3594 35.6406 19.9914 35.6406 19.5391V3.46094C35.6406 3.00864 36.0086 2.64062 36.4609 2.64062H52.5391C52.9914 2.64062 53.3594 3.00864 53.3594 3.46094V19.5391Z" fill="black"/>
<path d="M87.2712 5.16525L87.2598 5.12109C88.2343 4.53688 89.0211 3.5738 89.3711 2.4707C88.4584 3.01367 87.3904 3.42561 86.3164 3.63867C85.4552 2.7211 84.3061 2.15625 82.9473 2.15625C80.3429 2.15625 78.1855 4.26475 78.1855 6.87305C78.1855 7.24419 78.238 7.60752 78.3203 7.95117V7.99609C74.4387 7.77436 70.9243 5.80031 68.6172 2.96484C68.2123 3.66248 67.9883 4.65939 67.9883 5.52539C67.9883 6.87305 68.7885 8.67805 70.0547 9.52344V9.61328C69.2987 9.58278 68.5243 9.06196 67.8984 8.71484C67.8984 8.73546 67.9258 8.76026 67.9258 8.78088C67.9258 11.0696 69.6034 13.0436 71.7617 13.4766C71.3856 13.5761 70.8558 13.6562 70.459 13.6562C70.1536 13.6562 69.8488 13.5765 69.5605 13.5215C70.161 15.3978 71.8965 16.6211 73.9629 16.6211V16.666C72.3545 17.913 70.3158 18.7773 68.123 18.7773C67.7422 18.7773 67.2695 18.7324 67 18.6875C69.0862 20.0277 71.5663 20.8438 74.2324 20.8438C82.9102 20.8438 87.6641 13.7012 87.6641 7.45703V6.82812C88.5871 6.16144 89.3686 5.26098 90 4.3125C90 4.3125 88.3439 5.09724 87.2712 5.16525ZM85.8672 7.45703C85.8672 8.80523 85.6031 10.221 85.1035 11.5512C84.5785 12.9492 83.8227 14.2107 82.8574 15.3005C81.3434 17.0096 78.6181 19.0469 74.2324 19.0469C74.1035 19.0469 73.9749 19.0446 73.8462 19.0402C74.2697 18.7945 74.6766 18.5211 75.0638 18.2209L75.7598 17.6814V16.8008V16.6211V14.8242L75.0195 14.816C74.2101 14.807 73.5586 14.1483 73.5586 13.3388V11.8696L72.5869 11.6502C72.1569 11.5531 71.8516 11.1711 71.8516 10.7303V9.61328V9.47852L71.8291 8.5626L71.03 8.02907C70.6849 7.73874 70.3722 7.32406 70.1493 6.87529C72.5072 8.59481 75.3076 9.62379 78.2178 9.79005L80.1172 9.89854V7.99609V7.95117V7.73892L80.0677 7.5325C80.0111 7.29626 79.9824 7.07439 79.9824 6.87305C79.9824 6.09931 80.2911 5.3687 80.8517 4.81576C81.4156 4.25949 82.1598 3.95312 82.9473 3.95312C83.7434 3.95312 84.4362 4.26106 85.0063 4.86841L85.4647 5.35684L85.5202 5.57112L85.5316 5.61528L85.8672 6.91262V7.45703Z" fill="black"/>
<defs>
<clipPath id="clip0_4_305">
<rect width="22" height="22" fill="white" transform="translate(0 0.5)"/>
</clipPath>
</defs>
</svg>
