<svg width="80" height="21" viewBox="0 0 80 21" fill="none" xmlns="http://www.w3.org/2000/svg">
<path d="M4.275 15.415L5.115 15.43V17.605H4.275V15.415ZM4.35 15.25V6.115L5.025 6.01V15.28L4.35 15.25ZM4.275 3.775H5.115V5.92L4.275 6.025V3.775ZM7.62 7.585C7.5 7.445 7.34 7.31 7.14 7.18C6.94 7.05 6.715 6.935 6.465 6.835C6.215 6.725 5.94 6.64 5.64 6.58C5.35 6.51 5.045 6.475 4.725 6.475C3.905 6.475 3.3 6.63 2.91 6.94C2.52 7.25 2.325 7.675 2.325 8.215C2.325 8.595 2.425 8.895 2.625 9.115C2.825 9.335 3.13 9.515 3.54 9.655C3.96 9.795 4.49 9.94 5.13 10.09C5.87 10.25 6.51 10.445 7.05 10.675C7.59 10.905 8.005 11.215 8.295 11.605C8.585 11.985 8.73 12.495 8.73 13.135C8.73 13.645 8.63 14.09 8.43 14.47C8.24 14.84 7.97 15.15 7.62 15.4C7.27 15.64 6.86 15.82 6.39 15.94C5.92 16.05 5.41 16.105 4.86 16.105C4.32 16.105 3.79 16.05 3.27 15.94C2.76 15.82 2.275 15.65 1.815 15.43C1.355 15.21 0.925 14.935 0.525 14.605L1.17 13.465C1.33 13.635 1.535 13.805 1.785 13.975C2.045 14.135 2.335 14.285 2.655 14.425C2.985 14.565 3.34 14.68 3.72 14.77C4.1 14.85 4.49 14.89 4.89 14.89C5.65 14.89 6.24 14.755 6.66 14.485C7.08 14.205 7.29 13.8 7.29 13.27C7.29 12.87 7.17 12.55 6.93 12.31C6.7 12.07 6.355 11.87 5.895 11.71C5.435 11.55 4.875 11.39 4.215 11.23C3.495 11.05 2.89 10.855 2.4 10.645C1.91 10.425 1.54 10.14 1.29 9.79C1.05 9.44 0.93 8.985 0.93 8.425C0.93 7.745 1.095 7.17 1.425 6.7C1.755 6.23 2.21 5.875 2.79 5.635C3.37 5.395 4.025 5.275 4.755 5.275C5.235 5.275 5.68 5.325 6.09 5.425C6.51 5.525 6.9 5.665 7.26 5.845C7.62 6.025 7.95 6.24 8.25 6.49L7.62 7.585ZM10.2761 16C10.2761 15.6 10.3061 15.225 10.3661 14.875C10.4361 14.525 10.5561 14.19 10.7261 13.87C10.9061 13.55 11.1561 13.245 11.4761 12.955C11.7961 12.655 12.2111 12.365 12.7211 12.085C13.0211 11.915 13.3211 11.755 13.6211 11.605C13.9311 11.455 14.2161 11.295 14.4761 11.125C14.7461 10.955 14.9611 10.77 15.1211 10.57C15.2811 10.36 15.3611 10.12 15.3611 9.85C15.3611 9.62 15.2911 9.4 15.1511 9.19C15.0211 8.97 14.8211 8.795 14.5511 8.665C14.2911 8.525 13.9661 8.455 13.5761 8.455C13.2761 8.455 13.0011 8.495 12.7511 8.575C12.5111 8.655 12.2911 8.76 12.0911 8.89C11.9011 9.01 11.7311 9.14 11.5811 9.28C11.4411 9.41 11.3211 9.53 11.2211 9.64L10.3961 8.71C10.4761 8.62 10.6111 8.5 10.8011 8.35C10.9911 8.19 11.2311 8.03 11.5211 7.87C11.8111 7.71 12.1461 7.575 12.5261 7.465C12.9161 7.345 13.3411 7.285 13.8011 7.285C14.4211 7.285 14.9511 7.395 15.3911 7.615C15.8411 7.825 16.1861 8.115 16.4261 8.485C16.6661 8.845 16.7861 9.25 16.7861 9.7C16.7861 10.09 16.7011 10.43 16.5311 10.72C16.3711 11.01 16.1611 11.265 15.9011 11.485C15.6511 11.705 15.3861 11.895 15.1061 12.055C14.8361 12.205 14.5911 12.335 14.3711 12.445C13.9211 12.665 13.5361 12.865 13.2161 13.045C12.8961 13.225 12.6311 13.405 12.4211 13.585C12.2211 13.755 12.0561 13.935 11.9261 14.125C11.8061 14.315 11.7161 14.54 11.6561 14.8H16.9511V16H10.2761ZM18.6034 16C18.6034 15.6 18.6334 15.225 18.6934 14.875C18.7634 14.525 18.8834 14.19 19.0534 13.87C19.2334 13.55 19.4834 13.245 19.8034 12.955C20.1234 12.655 20.5384 12.365 21.0484 12.085C21.3484 11.915 21.6484 11.755 21.9484 11.605C22.2584 11.455 22.5434 11.295 22.8034 11.125C23.0734 10.955 23.2884 10.77 23.4484 10.57C23.6084 10.36 23.6884 10.12 23.6884 9.85C23.6884 9.62 23.6184 9.4 23.4784 9.19C23.3484 8.97 23.1484 8.795 22.8784 8.665C22.6184 8.525 22.2934 8.455 21.9034 8.455C21.6034 8.455 21.3284 8.495 21.0784 8.575C20.8384 8.655 20.6184 8.76 20.4184 8.89C20.2284 9.01 20.0584 9.14 19.9084 9.28C19.7684 9.41 19.6484 9.53 19.5484 9.64L18.7234 8.71C18.8034 8.62 18.9384 8.5 19.1284 8.35C19.3184 8.19 19.5584 8.03 19.8484 7.87C20.1384 7.71 20.4734 7.575 20.8534 7.465C21.2434 7.345 21.6684 7.285 22.1284 7.285C22.7484 7.285 23.2784 7.395 23.7184 7.615C24.1684 7.825 24.5134 8.115 24.7534 8.485C24.9934 8.845 25.1134 9.25 25.1134 9.7C25.1134 10.09 25.0284 10.43 24.8584 10.72C24.6984 11.01 24.4884 11.265 24.2284 11.485C23.9784 11.705 23.7134 11.895 23.4334 12.055C23.1634 12.205 22.9184 12.335 22.6984 12.445C22.2484 12.665 21.8634 12.865 21.5434 13.045C21.2234 13.225 20.9584 13.405 20.7484 13.585C20.5484 13.755 20.3834 13.935 20.2534 14.125C20.1334 14.315 20.0434 14.54 19.9834 14.8H25.2784V16H18.6034ZM26.8257 11.11C26.8257 11.78 26.9857 12.385 27.3057 12.925C27.6357 13.465 28.0807 13.895 28.6407 14.215C29.2007 14.535 29.8207 14.695 30.5007 14.695C30.9207 14.695 31.3107 14.625 31.6707 14.485C32.0307 14.345 32.3457 14.145 32.6157 13.885C32.8957 13.625 33.1057 13.325 33.2457 12.985C33.2357 13.865 33.1157 14.615 32.8857 15.235C32.6657 15.855 32.3507 16.33 31.9407 16.66C31.5407 16.99 31.0657 17.155 30.5157 17.155C29.9957 17.155 29.5157 17.015 29.0757 16.735C28.6457 16.455 28.3207 16.085 28.1007 15.625L27.2907 16.42C27.6107 17.01 28.0507 17.47 28.6107 17.8C29.1807 18.14 29.8107 18.31 30.5007 18.31C31.3007 18.31 32.0007 18.075 32.6007 17.605C33.2007 17.145 33.6657 16.45 33.9957 15.52C34.3257 14.59 34.4907 13.425 34.4907 12.025C34.4907 11.065 34.3257 10.245 33.9957 9.565C33.6757 8.875 33.2257 8.35 32.6457 7.99C32.0757 7.62 31.4057 7.435 30.6357 7.435C29.9257 7.435 29.2807 7.6 28.7007 7.93C28.1207 8.26 27.6607 8.705 27.3207 9.265C26.9907 9.815 26.8257 10.43 26.8257 11.11ZM30.6207 8.575C31.0807 8.575 31.5007 8.69 31.8807 8.92C32.2707 9.15 32.5807 9.46 32.8107 9.85C33.0407 10.23 33.1557 10.65 33.1557 11.11C33.1557 11.57 33.0407 11.99 32.8107 12.37C32.5807 12.75 32.2757 13.055 31.8957 13.285C31.5157 13.515 31.0907 13.63 30.6207 13.63C30.1607 13.63 29.7357 13.515 29.3457 13.285C28.9657 13.055 28.6607 12.75 28.4307 12.37C28.2007 11.99 28.0857 11.57 28.0857 11.11C28.0857 10.64 28.2007 10.215 28.4307 9.835C28.6607 9.455 28.9657 9.15 29.3457 8.92C29.7357 8.69 30.1607 8.575 30.6207 8.575Z" fill="#9C9C9C"/>
<path d="M0 11.335H35.1207V12.085H0V11.335Z" fill="#9C9C9C"/>
<path d="M50.275 15.415L51.115 15.43V17.605H50.275V15.415ZM50.35 15.25V6.115L51.025 6.01V15.28L50.35 15.25ZM50.275 3.775H51.115V5.92L50.275 6.025V3.775ZM53.62 7.585C53.5 7.445 53.34 7.31 53.14 7.18C52.94 7.05 52.715 6.935 52.465 6.835C52.215 6.725 51.94 6.64 51.64 6.58C51.35 6.51 51.045 6.475 50.725 6.475C49.905 6.475 49.3 6.63 48.91 6.94C48.52 7.25 48.325 7.675 48.325 8.215C48.325 8.595 48.425 8.895 48.625 9.115C48.825 9.335 49.13 9.515 49.54 9.655C49.96 9.795 50.49 9.94 51.13 10.09C51.87 10.25 52.51 10.445 53.05 10.675C53.59 10.905 54.005 11.215 54.295 11.605C54.585 11.985 54.73 12.495 54.73 13.135C54.73 13.645 54.63 14.09 54.43 14.47C54.24 14.84 53.97 15.15 53.62 15.4C53.27 15.64 52.86 15.82 52.39 15.94C51.92 16.05 51.41 16.105 50.86 16.105C50.32 16.105 49.79 16.05 49.27 15.94C48.76 15.82 48.275 15.65 47.815 15.43C47.355 15.21 46.925 14.935 46.525 14.605L47.17 13.465C47.33 13.635 47.535 13.805 47.785 13.975C48.045 14.135 48.335 14.285 48.655 14.425C48.985 14.565 49.34 14.68 49.72 14.77C50.1 14.85 50.49 14.89 50.89 14.89C51.65 14.89 52.24 14.755 52.66 14.485C53.08 14.205 53.29 13.8 53.29 13.27C53.29 12.87 53.17 12.55 52.93 12.31C52.7 12.07 52.355 11.87 51.895 11.71C51.435 11.55 50.875 11.39 50.215 11.23C49.495 11.05 48.89 10.855 48.4 10.645C47.91 10.425 47.54 10.14 47.29 9.79C47.05 9.44 46.93 8.985 46.93 8.425C46.93 7.745 47.095 7.17 47.425 6.7C47.755 6.23 48.21 5.875 48.79 5.635C49.37 5.395 50.025 5.275 50.755 5.275C51.235 5.275 51.68 5.325 52.09 5.425C52.51 5.525 52.9 5.665 53.26 5.845C53.62 6.025 53.95 6.24 54.25 6.49L53.62 7.585ZM62.0211 14.8V16H56.6361V14.8H58.7661V8.95C58.6761 9.07 58.5361 9.2 58.3461 9.34C58.1561 9.47 57.9411 9.595 57.7011 9.715C57.4611 9.835 57.2211 9.935 56.9811 10.015C56.7411 10.085 56.5211 10.12 56.3211 10.12V8.86C56.5411 8.86 56.7811 8.8 57.0411 8.68C57.3111 8.55 57.5711 8.4 57.8211 8.23C58.0711 8.06 58.2811 7.9 58.4511 7.75C58.6311 7.6 58.7361 7.495 58.7661 7.435H60.1161V14.8H62.0211ZM63.329 16C63.329 15.6 63.359 15.225 63.419 14.875C63.489 14.525 63.609 14.19 63.779 13.87C63.959 13.55 64.209 13.245 64.529 12.955C64.849 12.655 65.264 12.365 65.774 12.085C66.074 11.915 66.374 11.755 66.674 11.605C66.984 11.455 67.269 11.295 67.529 11.125C67.799 10.955 68.014 10.77 68.174 10.57C68.334 10.36 68.414 10.12 68.414 9.85C68.414 9.62 68.344 9.4 68.204 9.19C68.074 8.97 67.874 8.795 67.604 8.665C67.344 8.525 67.019 8.455 66.629 8.455C66.329 8.455 66.054 8.495 65.804 8.575C65.564 8.655 65.344 8.76 65.144 8.89C64.954 9.01 64.784 9.14 64.634 9.28C64.494 9.41 64.374 9.53 64.274 9.64L63.449 8.71C63.529 8.62 63.664 8.5 63.854 8.35C64.044 8.19 64.284 8.03 64.574 7.87C64.864 7.71 65.199 7.575 65.579 7.465C65.969 7.345 66.394 7.285 66.854 7.285C67.474 7.285 68.004 7.395 68.444 7.615C68.894 7.825 69.239 8.115 69.479 8.485C69.719 8.845 69.839 9.25 69.839 9.7C69.839 10.09 69.754 10.43 69.584 10.72C69.424 11.01 69.214 11.265 68.954 11.485C68.704 11.705 68.439 11.895 68.159 12.055C67.889 12.205 67.644 12.335 67.424 12.445C66.974 12.665 66.589 12.865 66.269 13.045C65.949 13.225 65.684 13.405 65.474 13.585C65.274 13.755 65.109 13.935 64.979 14.125C64.859 14.315 64.769 14.54 64.709 14.8H70.004V16H63.329ZM71.5513 11.11C71.5513 11.78 71.7113 12.385 72.0313 12.925C72.3613 13.465 72.8063 13.895 73.3663 14.215C73.9263 14.535 74.5463 14.695 75.2263 14.695C75.6463 14.695 76.0363 14.625 76.3963 14.485C76.7563 14.345 77.0713 14.145 77.3413 13.885C77.6213 13.625 77.8313 13.325 77.9713 12.985C77.9613 13.865 77.8413 14.615 77.6113 15.235C77.3913 15.855 77.0763 16.33 76.6663 16.66C76.2663 16.99 75.7913 17.155 75.2413 17.155C74.7213 17.155 74.2413 17.015 73.8013 16.735C73.3713 16.455 73.0463 16.085 72.8263 15.625L72.0163 16.42C72.3363 17.01 72.7763 17.47 73.3363 17.8C73.9063 18.14 74.5363 18.31 75.2263 18.31C76.0263 18.31 76.7263 18.075 77.3263 17.605C77.9263 17.145 78.3913 16.45 78.7213 15.52C79.0513 14.59 79.2163 13.425 79.2163 12.025C79.2163 11.065 79.0513 10.245 78.7213 9.565C78.4013 8.875 77.9513 8.35 77.3713 7.99C76.8013 7.62 76.1313 7.435 75.3613 7.435C74.6513 7.435 74.0063 7.6 73.4263 7.93C72.8463 8.26 72.3863 8.705 72.0463 9.265C71.7163 9.815 71.5513 10.43 71.5513 11.11ZM75.3463 8.575C75.8063 8.575 76.2263 8.69 76.6063 8.92C76.9963 9.15 77.3063 9.46 77.5363 9.85C77.7663 10.23 77.8813 10.65 77.8813 11.11C77.8813 11.57 77.7663 11.99 77.5363 12.37C77.3063 12.75 77.0013 13.055 76.6213 13.285C76.2413 13.515 75.8163 13.63 75.3463 13.63C74.8863 13.63 74.4613 13.515 74.0713 13.285C73.6913 13.055 73.3863 12.75 73.1563 12.37C72.9263 11.99 72.8113 11.57 72.8113 11.11C72.8113 10.64 72.9263 10.215 73.1563 9.835C73.3863 9.455 73.6913 9.15 74.0713 8.92C74.4613 8.69 74.8863 8.575 75.3463 8.575Z" fill="#998E78"/>
</svg>
