<svg width="34" height="21" viewBox="0 0 34 21" fill="none" xmlns="http://www.w3.org/2000/svg">
<path d="M4.275 15.415L5.115 15.43V17.605H4.275V15.415ZM4.35 15.25V6.115L5.025 6.01V15.28L4.35 15.25ZM4.275 3.775H5.115V5.92L4.275 6.025V3.775ZM7.62 7.585C7.5 7.445 7.34 7.31 7.14 7.18C6.94 7.05 6.715 6.935 6.465 6.835C6.215 6.725 5.94 6.64 5.64 6.58C5.35 6.51 5.045 6.475 4.725 6.475C3.905 6.475 3.3 6.63 2.91 6.94C2.52 7.25 2.325 7.675 2.325 8.215C2.325 8.595 2.425 8.895 2.625 9.115C2.825 9.335 3.13 9.515 3.54 9.655C3.96 9.795 4.49 9.94 5.13 10.09C5.87 10.25 6.51 10.445 7.05 10.675C7.59 10.905 8.005 11.215 8.295 11.605C8.585 11.985 8.73 12.495 8.73 13.135C8.73 13.645 8.63 14.09 8.43 14.47C8.24 14.84 7.97 15.15 7.62 15.4C7.27 15.64 6.86 15.82 6.39 15.94C5.92 16.05 5.41 16.105 4.86 16.105C4.32 16.105 3.79 16.05 3.27 15.94C2.76 15.82 2.275 15.65 1.815 15.43C1.355 15.21 0.925 14.935 0.525 14.605L1.17 13.465C1.33 13.635 1.535 13.805 1.785 13.975C2.045 14.135 2.335 14.285 2.655 14.425C2.985 14.565 3.34 14.68 3.72 14.77C4.1 14.85 4.49 14.89 4.89 14.89C5.65 14.89 6.24 14.755 6.66 14.485C7.08 14.205 7.29 13.8 7.29 13.27C7.29 12.87 7.17 12.55 6.93 12.31C6.7 12.07 6.355 11.87 5.895 11.71C5.435 11.55 4.875 11.39 4.215 11.23C3.495 11.05 2.89 10.855 2.4 10.645C1.91 10.425 1.54 10.14 1.29 9.79C1.05 9.44 0.93 8.985 0.93 8.425C0.93 7.745 1.095 7.17 1.425 6.7C1.755 6.23 2.21 5.875 2.79 5.635C3.37 5.395 4.025 5.275 4.755 5.275C5.235 5.275 5.68 5.325 6.09 5.425C6.51 5.525 6.9 5.665 7.26 5.845C7.62 6.025 7.95 6.24 8.25 6.49L7.62 7.585ZM16.0211 14.8V16H10.6361V14.8H12.7661V8.95C12.6761 9.07 12.5361 9.2 12.3461 9.34C12.1561 9.47 11.9411 9.595 11.7011 9.715C11.4611 9.835 11.2211 9.935 10.9811 10.015C10.7411 10.085 10.5211 10.12 10.3211 10.12V8.86C10.5411 8.86 10.7811 8.8 11.0411 8.68C11.3111 8.55 11.5711 8.4 11.8211 8.23C12.0711 8.06 12.2811 7.9 12.4511 7.75C12.6311 7.6 12.7361 7.495 12.7661 7.435H14.1161V14.8H16.0211ZM17.329 16C17.329 15.6 17.359 15.225 17.419 14.875C17.489 14.525 17.609 14.19 17.779 13.87C17.959 13.55 18.209 13.245 18.529 12.955C18.849 12.655 19.264 12.365 19.774 12.085C20.074 11.915 20.374 11.755 20.674 11.605C20.984 11.455 21.269 11.295 21.529 11.125C21.799 10.955 22.014 10.77 22.174 10.57C22.334 10.36 22.414 10.12 22.414 9.85C22.414 9.62 22.344 9.4 22.204 9.19C22.074 8.97 21.874 8.795 21.604 8.665C21.344 8.525 21.019 8.455 20.629 8.455C20.329 8.455 20.054 8.495 19.804 8.575C19.564 8.655 19.344 8.76 19.144 8.89C18.954 9.01 18.784 9.14 18.634 9.28C18.494 9.41 18.374 9.53 18.274 9.64L17.449 8.71C17.529 8.62 17.664 8.5 17.854 8.35C18.044 8.19 18.284 8.03 18.574 7.87C18.864 7.71 19.199 7.575 19.579 7.465C19.969 7.345 20.394 7.285 20.854 7.285C21.474 7.285 22.004 7.395 22.444 7.615C22.894 7.825 23.239 8.115 23.479 8.485C23.719 8.845 23.839 9.25 23.839 9.7C23.839 10.09 23.754 10.43 23.584 10.72C23.424 11.01 23.214 11.265 22.954 11.485C22.704 11.705 22.439 11.895 22.159 12.055C21.889 12.205 21.644 12.335 21.424 12.445C20.974 12.665 20.589 12.865 20.269 13.045C19.949 13.225 19.684 13.405 19.474 13.585C19.274 13.755 19.109 13.935 18.979 14.125C18.859 14.315 18.769 14.54 18.709 14.8H24.004V16H17.329ZM25.5513 11.11C25.5513 11.78 25.7113 12.385 26.0313 12.925C26.3613 13.465 26.8063 13.895 27.3663 14.215C27.9263 14.535 28.5463 14.695 29.2263 14.695C29.6463 14.695 30.0363 14.625 30.3963 14.485C30.7563 14.345 31.0713 14.145 31.3413 13.885C31.6213 13.625 31.8313 13.325 31.9713 12.985C31.9613 13.865 31.8413 14.615 31.6113 15.235C31.3913 15.855 31.0763 16.33 30.6663 16.66C30.2663 16.99 29.7913 17.155 29.2413 17.155C28.7213 17.155 28.2413 17.015 27.8013 16.735C27.3713 16.455 27.0463 16.085 26.8263 15.625L26.0163 16.42C26.3363 17.01 26.7763 17.47 27.3363 17.8C27.9063 18.14 28.5363 18.31 29.2263 18.31C30.0263 18.31 30.7263 18.075 31.3263 17.605C31.9263 17.145 32.3913 16.45 32.7213 15.52C33.0513 14.59 33.2163 13.425 33.2163 12.025C33.2163 11.065 33.0513 10.245 32.7213 9.565C32.4013 8.875 31.9513 8.35 31.3713 7.99C30.8013 7.62 30.1313 7.435 29.3613 7.435C28.6513 7.435 28.0063 7.6 27.4263 7.93C26.8463 8.26 26.3863 8.705 26.0463 9.265C25.7163 9.815 25.5513 10.43 25.5513 11.11ZM29.3463 8.575C29.8063 8.575 30.2263 8.69 30.6063 8.92C30.9963 9.15 31.3063 9.46 31.5363 9.85C31.7663 10.23 31.8813 10.65 31.8813 11.11C31.8813 11.57 31.7663 11.99 31.5363 12.37C31.3063 12.75 31.0013 13.055 30.6213 13.285C30.2413 13.515 29.8163 13.63 29.3463 13.63C28.8863 13.63 28.4613 13.515 28.0713 13.285C27.6913 13.055 27.3863 12.75 27.1563 12.37C26.9263 11.99 26.8113 11.57 26.8113 11.11C26.8113 10.64 26.9263 10.215 27.1563 9.835C27.3863 9.455 27.6913 9.15 28.0713 8.92C28.4613 8.69 28.8863 8.575 29.3463 8.575Z" fill="#998E78"/>
</svg>
