<svg width="181" height="24" viewBox="0 0 181 24" fill="none" xmlns="http://www.w3.org/2000/svg">
<path d="M1.445 18V5.93H8.466V7.29H2.975V18H1.445ZM9.66344 18.068V16.725C9.9581 16.725 10.2188 16.6513 10.4454 16.504C10.6834 16.3453 10.8931 16.0847 11.0744 15.722C11.2558 15.348 11.3974 14.838 11.4994 14.192C11.6128 13.5347 11.6864 12.7017 11.7204 11.693L11.8224 9.126H17.8574V18H16.3614V10.452H13.1484L13.1144 11.829C13.0691 13.0417 12.9671 14.0503 12.8084 14.855C12.6498 15.6597 12.4288 16.2943 12.1454 16.759C11.8621 17.2237 11.5108 17.558 11.0914 17.762C10.6834 17.966 10.2074 18.068 9.66344 18.068ZM19.9166 15.433C19.9166 14.8663 20.0752 14.379 20.3926 13.971C20.7212 13.5517 21.1689 13.2287 21.7356 13.002C22.3022 12.7753 22.9596 12.662 23.7076 12.662C24.1042 12.662 24.5236 12.696 24.9656 12.764C25.4076 12.8207 25.7986 12.9113 26.1386 13.036V12.39C26.1386 11.71 25.9346 11.1773 25.5266 10.792C25.1186 10.3953 24.5406 10.197 23.7926 10.197C23.3052 10.197 22.8349 10.2877 22.3816 10.469C21.9396 10.639 21.4692 10.8883 20.9706 11.217L20.4266 10.163C21.0046 9.76633 21.5826 9.47167 22.1606 9.279C22.7386 9.075 23.3392 8.973 23.9626 8.973C25.0959 8.973 25.9912 9.29033 26.6486 9.925C27.3059 10.5483 27.6346 11.421 27.6346 12.543V16.3C27.6346 16.4813 27.6686 16.6173 27.7366 16.708C27.8159 16.7873 27.9406 16.8327 28.1106 16.844V18C27.9632 18.0227 27.8329 18.0397 27.7196 18.051C27.6176 18.0623 27.5326 18.068 27.4646 18.068C27.1132 18.068 26.8469 17.9717 26.6656 17.779C26.4956 17.5863 26.3992 17.3823 26.3766 17.167L26.3426 16.606C25.9572 17.1047 25.4529 17.49 24.8296 17.762C24.2062 18.034 23.5886 18.17 22.9766 18.17C22.3872 18.17 21.8602 18.051 21.3956 17.813C20.9309 17.5637 20.5682 17.235 20.3076 16.827C20.0469 16.4077 19.9166 15.943 19.9166 15.433ZM25.6966 16.062C25.8326 15.9033 25.9402 15.7447 26.0196 15.586C26.0989 15.416 26.1386 15.2743 26.1386 15.161V14.056C25.7872 13.92 25.4189 13.818 25.0336 13.75C24.6482 13.6707 24.2686 13.631 23.8946 13.631C23.1352 13.631 22.5176 13.784 22.0416 14.09C21.5769 14.3847 21.3446 14.7927 21.3446 15.314C21.3446 15.5973 21.4182 15.875 21.5656 16.147C21.7242 16.4077 21.9509 16.623 22.2456 16.793C22.5516 16.963 22.9256 17.048 23.3676 17.048C23.8322 17.048 24.2742 16.9573 24.6936 16.776C25.1129 16.5833 25.4472 16.3453 25.6966 16.062ZM30.3496 18V9.126H34.9396C35.4723 9.126 35.9143 9.23367 36.2656 9.449C36.617 9.653 36.8776 9.91933 37.0476 10.248C37.229 10.5767 37.3196 10.928 37.3196 11.302C37.3196 11.778 37.2063 12.2087 36.9796 12.594C36.753 12.968 36.4243 13.2513 35.9936 13.444C36.5036 13.5913 36.9173 13.8577 37.2346 14.243C37.552 14.617 37.7106 15.0817 37.7106 15.637C37.7106 16.1357 37.5916 16.5607 37.3536 16.912C37.1156 17.2633 36.7813 17.5353 36.3506 17.728C35.92 17.9093 35.4213 18 34.8546 18H30.3496ZM31.7776 16.946H34.8206C35.0926 16.946 35.3363 16.878 35.5516 16.742C35.7783 16.606 35.954 16.4247 36.0786 16.198C36.2033 15.9713 36.2656 15.7333 36.2656 15.484C36.2656 15.212 36.2033 14.9683 36.0786 14.753C35.9653 14.5263 35.801 14.3507 35.5856 14.226C35.3816 14.09 35.1436 14.022 34.8716 14.022H31.7776V16.946ZM31.7776 13.036H34.5486C34.8206 13.036 35.0586 12.968 35.2626 12.832C35.4666 12.6847 35.6253 12.4977 35.7386 12.271C35.852 12.0443 35.9086 11.8063 35.9086 11.557C35.9086 11.183 35.784 10.86 35.5346 10.588C35.2966 10.316 34.985 10.18 34.5996 10.18H31.7776V13.036ZM39.9367 18V9.126H41.4327V12.798H46.0567V9.126H47.5527V18H46.0567V14.124H41.4327V18H39.9367ZM49.6075 15.433C49.6075 14.8663 49.7661 14.379 50.0835 13.971C50.4121 13.5517 50.8598 13.2287 51.4265 13.002C51.9931 12.7753 52.6505 12.662 53.3985 12.662C53.7951 12.662 54.2145 12.696 54.6565 12.764C55.0985 12.8207 55.4895 12.9113 55.8295 13.036V12.39C55.8295 11.71 55.6255 11.1773 55.2175 10.792C54.8095 10.3953 54.2315 10.197 53.4835 10.197C52.9961 10.197 52.5258 10.2877 52.0725 10.469C51.6305 10.639 51.1601 10.8883 50.6615 11.217L50.1175 10.163C50.6955 9.76633 51.2735 9.47167 51.8515 9.279C52.4295 9.075 53.0301 8.973 53.6535 8.973C54.7868 8.973 55.6821 9.29033 56.3395 9.925C56.9968 10.5483 57.3255 11.421 57.3255 12.543V16.3C57.3255 16.4813 57.3595 16.6173 57.4275 16.708C57.5068 16.7873 57.6315 16.8327 57.8015 16.844V18C57.6541 18.0227 57.5238 18.0397 57.4105 18.051C57.3085 18.0623 57.2235 18.068 57.1555 18.068C56.8041 18.068 56.5378 17.9717 56.3565 17.779C56.1865 17.5863 56.0901 17.3823 56.0675 17.167L56.0335 16.606C55.6481 17.1047 55.1438 17.49 54.5205 17.762C53.8971 18.034 53.2795 18.17 52.6675 18.17C52.0781 18.17 51.5511 18.051 51.0865 17.813C50.6218 17.5637 50.2591 17.235 49.9985 16.827C49.7378 16.4077 49.6075 15.943 49.6075 15.433ZM55.3875 16.062C55.5235 15.9033 55.6311 15.7447 55.7105 15.586C55.7898 15.416 55.8295 15.2743 55.8295 15.161V14.056C55.4781 13.92 55.1098 13.818 54.7245 13.75C54.3391 13.6707 53.9595 13.631 53.5855 13.631C52.8261 13.631 52.2085 13.784 51.7325 14.09C51.2678 14.3847 51.0355 14.7927 51.0355 15.314C51.0355 15.5973 51.1091 15.875 51.2565 16.147C51.4151 16.4077 51.6418 16.623 51.9365 16.793C52.2425 16.963 52.6165 17.048 53.0585 17.048C53.5231 17.048 53.9651 16.9573 54.3845 16.776C54.8038 16.5833 55.1381 16.3453 55.3875 16.062ZM59.3945 18L61.9105 14.43C61.3325 14.3167 60.8679 14.0447 60.5165 13.614C60.1652 13.172 59.9895 12.5827 59.9895 11.846C59.9895 11.3133 60.1142 10.843 60.3635 10.435C60.6129 10.027 60.9585 9.704 61.4005 9.466C61.8539 9.228 62.3809 9.109 62.9815 9.109H66.6195V18H65.1235V14.668H63.3895L61.0435 18H59.3945ZM63.0835 13.563H65.1235V10.282H63.2535C62.7209 10.282 62.2959 10.435 61.9785 10.741C61.6612 11.0357 61.5025 11.4153 61.5025 11.88C61.5025 12.3447 61.6329 12.7413 61.8935 13.07C62.1655 13.3987 62.5622 13.563 63.0835 13.563Z" fill="black"/>
<path d="M82.088 14.039V12.679H95.399V14.039H82.088Z" fill="black"/>
<path d="M121.883 18V8.786L117.905 15.875H116.97L112.975 8.786V18H111.445V5.93H113.06L117.429 13.767L121.815 5.93H123.413V18H121.883ZM125.625 15.433C125.625 14.8663 125.784 14.379 126.101 13.971C126.43 13.5517 126.878 13.2287 127.444 13.002C128.011 12.7753 128.668 12.662 129.416 12.662C129.813 12.662 130.232 12.696 130.674 12.764C131.116 12.8207 131.507 12.9113 131.847 13.036V12.39C131.847 11.71 131.643 11.1773 131.235 10.792C130.827 10.3953 130.249 10.197 129.501 10.197C129.014 10.197 128.544 10.2877 128.09 10.469C127.648 10.639 127.178 10.8883 126.679 11.217L126.135 10.163C126.713 9.76633 127.291 9.47167 127.869 9.279C128.447 9.075 129.048 8.973 129.671 8.973C130.805 8.973 131.7 9.29033 132.357 9.925C133.015 10.5483 133.343 11.421 133.343 12.543V16.3C133.343 16.4813 133.377 16.6173 133.445 16.708C133.525 16.7873 133.649 16.8327 133.819 16.844V18C133.672 18.0227 133.542 18.0397 133.428 18.051C133.326 18.0623 133.241 18.068 133.173 18.068C132.822 18.068 132.556 17.9717 132.374 17.779C132.204 17.5863 132.108 17.3823 132.085 17.167L132.051 16.606C131.666 17.1047 131.162 17.49 130.538 17.762C129.915 18.034 129.297 18.17 128.685 18.17C128.096 18.17 127.569 18.051 127.104 17.813C126.64 17.5637 126.277 17.235 126.016 16.827C125.756 16.4077 125.625 15.943 125.625 15.433ZM131.405 16.062C131.541 15.9033 131.649 15.7447 131.728 15.586C131.808 15.416 131.847 15.2743 131.847 15.161V14.056C131.496 13.92 131.128 13.818 130.742 13.75C130.357 13.6707 129.977 13.631 129.603 13.631C128.844 13.631 128.226 13.784 127.75 14.09C127.286 14.3847 127.053 14.7927 127.053 15.314C127.053 15.5973 127.127 15.875 127.274 16.147C127.433 16.4077 127.66 16.623 127.954 16.793C128.26 16.963 128.634 17.048 129.076 17.048C129.541 17.048 129.983 16.9573 130.402 16.776C130.822 16.5833 131.156 16.3453 131.405 16.062ZM136.058 18V9.126H141.532V10.452H137.554V18H136.058ZM142.708 15.433C142.708 14.8663 142.866 14.379 143.184 13.971C143.512 13.5517 143.96 13.2287 144.527 13.002C145.093 12.7753 145.751 12.662 146.499 12.662C146.895 12.662 147.315 12.696 147.757 12.764C148.199 12.8207 148.59 12.9113 148.93 13.036V12.39C148.93 11.71 148.726 11.1773 148.318 10.792C147.91 10.3953 147.332 10.197 146.584 10.197C146.096 10.197 145.626 10.2877 145.173 10.469C144.731 10.639 144.26 10.8883 143.762 11.217L143.218 10.163C143.796 9.76633 144.374 9.47167 144.952 9.279C145.53 9.075 146.13 8.973 146.754 8.973C147.887 8.973 148.782 9.29033 149.44 9.925C150.097 10.5483 150.426 11.421 150.426 12.543V16.3C150.426 16.4813 150.46 16.6173 150.528 16.708C150.607 16.7873 150.732 16.8327 150.902 16.844V18C150.754 18.0227 150.624 18.0397 150.511 18.051C150.409 18.0623 150.324 18.068 150.256 18.068C149.904 18.068 149.638 17.9717 149.457 17.779C149.287 17.5863 149.19 17.3823 149.168 17.167L149.134 16.606C148.748 17.1047 148.244 17.49 147.621 17.762C146.997 18.034 146.38 18.17 145.768 18.17C145.178 18.17 144.651 18.051 144.187 17.813C143.722 17.5637 143.359 17.235 143.099 16.827C142.838 16.4077 142.708 15.943 142.708 15.433ZM148.488 16.062C148.624 15.9033 148.731 15.7447 148.811 15.586C148.89 15.416 148.93 15.2743 148.93 15.161V14.056C148.578 13.92 148.21 13.818 147.825 13.75C147.439 13.6707 147.06 13.631 146.686 13.631C145.926 13.631 145.309 13.784 144.833 14.09C144.368 14.3847 144.136 14.7927 144.136 15.314C144.136 15.5973 144.209 15.875 144.357 16.147C144.515 16.4077 144.742 16.623 145.037 16.793C145.343 16.963 145.717 17.048 146.159 17.048C146.623 17.048 147.065 16.9573 147.485 16.776C147.904 16.5833 148.238 16.3453 148.488 16.062ZM155.929 18.119C155.067 18.119 154.336 17.9603 153.736 17.643C153.146 17.3143 152.693 16.861 152.376 16.283L153.6 15.739C153.804 16.1017 154.093 16.385 154.467 16.589C154.852 16.793 155.317 16.895 155.861 16.895C156.507 16.895 157.017 16.7533 157.391 16.47C157.765 16.1867 157.952 15.807 157.952 15.331C157.952 14.9003 157.799 14.5547 157.493 14.294C157.198 14.022 156.779 13.8803 156.235 13.869H155.334V12.883H156.286C156.524 12.883 156.733 12.8263 156.915 12.713C157.107 12.5883 157.255 12.424 157.357 12.22C157.47 12.016 157.527 11.7893 157.527 11.54C157.527 11.1433 157.385 10.826 157.102 10.588C156.818 10.3387 156.393 10.214 155.827 10.214C155.362 10.214 154.971 10.3047 154.654 10.486C154.348 10.6673 154.098 10.9393 153.906 11.302L152.767 10.69C153.05 10.1573 153.458 9.74367 153.991 9.449C154.535 9.143 155.169 8.99 155.895 8.99C156.473 8.99 156.983 9.08633 157.425 9.279C157.878 9.46033 158.229 9.72667 158.479 10.078C158.739 10.4293 158.87 10.8543 158.87 11.353C158.87 11.7723 158.768 12.1633 158.564 12.526C158.371 12.8773 158.082 13.1437 157.697 13.325C158.229 13.4837 158.637 13.7613 158.921 14.158C159.204 14.5433 159.346 15.0023 159.346 15.535C159.346 16.079 159.198 16.5437 158.904 16.929C158.609 17.3143 158.207 17.609 157.697 17.813C157.187 18.017 156.597 18.119 155.929 18.119ZM161.466 18V9.143H162.962V15.994L167.926 9.126H169.286V18H167.79V11.285L162.894 18H161.466ZM172 18V9.126H173.496V12.798H178.12V9.126H179.616V18H178.12V14.124H173.496V18H172Z" fill="#919191"/>
</svg>
